<?xml version="1.0" encoding="UTF-8" standalone="no"?>
<svg
   xmlns:dc="http://purl.org/dc/elements/1.1/"
   xmlns:cc="http://creativecommons.org/ns#"
   xmlns:rdf="http://www.w3.org/1999/02/22-rdf-syntax-ns#"
   xmlns:svg="http://www.w3.org/2000/svg"
   xmlns="http://www.w3.org/2000/svg"
   xmlns:sodipodi="http://sodipodi.sourceforge.net/DTD/sodipodi-0.dtd"
   xmlns:inkscape="http://www.inkscape.org/namespaces/inkscape"
   width="208.67224mm"
   height="156.98769mm"
   version="1.1"
   viewBox="0 0 739.38983 556.25557"
   id="svg2"
   inkscape:version="0.91 r13725"
   sodipodi:docname="library.svg">
  <metadata
     id="metadata72">
    <rdf:RDF>
      <cc:Work
         rdf:about="">
        <dc:format>image/svg+xml</dc:format>
        <dc:type
           rdf:resource="http://purl.org/dc/dcmitype/StillImage" />
        <dc:title></dc:title>
      </cc:Work>
    </rdf:RDF>
  </metadata>
  <sodipodi:namedview
     pagecolor="#ffffff"
     bordercolor="#666666"
     borderopacity="1"
     objecttolerance="10"
     gridtolerance="10"
     guidetolerance="10"
     inkscape:pageopacity="0"
     inkscape:pageshadow="2"
     inkscape:window-width="1920"
     inkscape:window-height="1113"
     id="namedview70"
     showgrid="false"
     inkscape:zoom="0.31358025"
     inkscape:cx="-383.83046"
     inkscape:cy="258.90915"
     inkscape:window-x="0"
     inkscape:window-y="24"
     inkscape:window-maximized="1"
     inkscape:current-layer="svg2"
     fit-margin-top="0"
     fit-margin-left="0"
     fit-margin-right="0"
     fit-margin-bottom="0"
     showborder="true"
     inkscape:showpageshadow="true"
     borderlayer="false" />
  <defs
     id="defs4">
    <filter
       id="b"
       style="color-interpolation-filters:sRGB">
      <feGaussianBlur
         result="result1"
         stdDeviation="1"
         id="feGaussianBlur7" />
      <feComposite
         in="result1"
         in2="result1"
         operator="in"
         result="result4"
         id="feComposite9" />
      <feBlend
         in="result1"
         in2="result4"
         mode="screen"
         result="result5"
         id="feBlend11" />
      <feGaussianBlur
         in="result5"
         result="result6"
         stdDeviation="8"
         id="feGaussianBlur13" />
      <feComposite
         in="result6"
         in2="result5"
         operator="atop"
         result="result8"
         id="feComposite15" />
      <feComposite
         in="result6"
         in2="result8"
         operator="in"
         result="fbSourceGraphic"
         id="feComposite17" />
      <feGaussianBlur
         in="fbSourceGraphic"
         result="result0"
         stdDeviation="2.5"
         id="feGaussianBlur19" />
      <feSpecularLighting
         lighting-color="#ffffff"
         in="result0"
         result="result1"
         specularConstant="1.5"
         specularExponent="45"
         id="feSpecularLighting21">
        <fePointLight
           x="-6000"
           y="-9000"
           z="21000"
           id="fePointLight23" />
      </feSpecularLighting>
      <feComposite
         in="result1"
         in2="fbSourceGraphic"
         operator="in"
         result="result2"
         id="feComposite25" />
      <feComposite
         in="fbSourceGraphic"
         in2="result2"
         k2="1"
         k3="1"
         operator="arithmetic"
         result="result4"
         id="feComposite27"
         k1="0"
         k4="0" />
      <feComposite
         in2="result4"
         operator="in"
         result="result91"
         id="feComposite29" />
      <feBlend
         in2="result91"
         mode="multiply"
         id="feBlend31" />
    </filter>
    <filter
       id="a"
       style="color-interpolation-filters:sRGB">
      <feGaussianBlur
         result="result1"
         stdDeviation="1"
         id="feGaussianBlur34" />
      <feComposite
         in="result1"
         in2="result1"
         operator="in"
         result="result4"
         id="feComposite36" />
      <feBlend
         in="result1"
         in2="result4"
         mode="screen"
         result="result5"
         id="feBlend38" />
      <feGaussianBlur
         in="result5"
         result="result6"
         stdDeviation="8"
         id="feGaussianBlur40" />
      <feComposite
         in="result6"
         in2="result5"
         operator="atop"
         result="result8"
         id="feComposite42" />
      <feComposite
         in="result6"
         in2="result8"
         operator="in"
         result="fbSourceGraphic"
         id="feComposite44" />
      <feGaussianBlur
         in="fbSourceGraphic"
         result="result0"
         stdDeviation="2.5"
         id="feGaussianBlur46" />
      <feSpecularLighting
         lighting-color="#ffffff"
         in="result0"
         result="result1"
         specularConstant="1.5"
         specularExponent="45"
         id="feSpecularLighting48">
        <fePointLight
           x="-6000"
           y="-9000"
           z="21000"
           id="fePointLight50" />
      </feSpecularLighting>
      <feComposite
         in="result1"
         in2="fbSourceGraphic"
         operator="in"
         result="result2"
         id="feComposite52" />
      <feComposite
         in="fbSourceGraphic"
         in2="result2"
         k2="1"
         k3="1"
         operator="arithmetic"
         result="result4"
         id="feComposite54"
         k1="0"
         k4="0" />
      <feComposite
         in2="result4"
         operator="in"
         result="result91"
         id="feComposite56" />
      <feBlend
         in2="result91"
         mode="multiply"
         id="feBlend58" />
    </filter>
  </defs>
  <g
     transform="translate(-130.30684,-382.97084)"
     id="g60">
    <path
       d="m 634.38,910.44 a 45.962,28.789 0 0 1 -45,28.78 45.962,28.789 0 0 1 -46.89,-27.57"
       id="path62"
       inkscape:connector-curvature="0"
       style="fill-opacity:0" />
    <g
       transform="translate(-78.792,47.477)"
       id="g64"
       style="fill:#0000cd">
      <ellipse
         transform="matrix(0.99998,0.0063245,-0.029184,0.99957,0,0)"
         cx="597.81"
         cy="840.84998"
         rx="80.301003"
         ry="17.184999"
         id="ellipse66"
         style="fill:#000000;filter:url(#a)" />
      <path
         transform="matrix(1.0025,0,0,0.96796,-1.4683,310.03)"
         d="m 280.68,73.131 c -5.0832,0 -9.1758,4.0925 -9.1758,9.1758 l 0,374.03 c 0,5.0833 4.0925,9.1758 9.1758,9.1758 l 596.27,0 c 5.0833,0 9.1758,-4.0925 9.1758,-9.1758 l 0,-374.03 c 0,-5.0833 -4.0925,-9.1758 -9.1758,-9.1758 l -596.27,0 z M 567,475.071 c -2.5864,0 -4.668,2.0835 -4.668,4.6699 l 0,56.965 c 0,2.5864 2.0816,4.668 4.668,4.668 l 16.559,0 c 2.5864,0 4.6699,-2.0816 4.6699,-4.668 l 0,-56.965 c 0,-2.5864 -2.0835,-4.6699 -4.6699,-4.6699 l -16.559,0 z"
         id="path68"
         inkscape:connector-curvature="0"
         style="fill-opacity:0;stroke:#000000;stroke-width:26.5340004;stroke-linecap:round;stroke-linejoin:round;filter:url(#b)" />
    </g>
  </g>
  <g
     id="g5511"
     transform="matrix(5.5085528,0,0,5.5085528,209.8034,75.944828)" />
  <g
     id="g5513"
     transform="matrix(5.5085528,0,0,5.5085528,209.8034,75.944828)" />
  <g
     id="g5515"
     transform="matrix(5.5085528,0,0,5.5085528,209.8034,75.944828)" />
  <g
     id="g5517"
     transform="matrix(5.5085528,0,0,5.5085528,209.8034,75.944828)" />
  <g
     id="g5519"
     transform="matrix(5.5085528,0,0,5.5085528,209.8034,75.944828)" />
  <g
     id="g5521"
     transform="matrix(5.5085528,0,0,5.5085528,209.8034,75.944828)" />
  <g
     id="g5523"
     transform="matrix(5.5085528,0,0,5.5085528,209.8034,75.944828)" />
  <g
     id="g5525"
     transform="matrix(5.5085528,0,0,5.5085528,209.8034,75.944828)" />
  <g
     id="g5527"
     transform="matrix(5.5085528,0,0,5.5085528,209.8034,75.944828)" />
  <g
     id="g5529"
     transform="matrix(5.5085528,0,0,5.5085528,209.8034,75.944828)" />
  <g
     id="g5531"
     transform="matrix(5.5085528,0,0,5.5085528,209.8034,75.944828)" />
  <g
     id="g5533"
     transform="matrix(5.5085528,0,0,5.5085528,209.8034,75.944828)" />
  <g
     id="g5535"
     transform="matrix(5.5085528,0,0,5.5085528,209.8034,75.944828)" />
  <g
     id="g5537"
     transform="matrix(5.5085528,0,0,5.5085528,209.8034,75.944828)" />
  <g
     id="g5539"
     transform="matrix(5.5085528,0,0,5.5085528,209.8034,75.944828)" />
  <g
     style="fill:#000000;stroke:none"
     transform="matrix(0.02676893,0,0,-0.02676893,202.3042,382.97718)"
     id="g78">
    <path
       inkscape:connector-curvature="0"
       d="m 11040,11204 c -25,-2 -160,-16 -300,-30 -376,-38 -535,-44 -650,-28 -103,15 -100,16 -273,-37 -71,-21 -83,-22 -147,-11 -95,16 -120,15 -293,-9 -167,-23 -259,-21 -329,7 -47,19 -47,19 -145,-6 -108,-28 -153,-29 -608,-20 l -240,5 -48,-32 c -82,-54 -154,-67 -335,-61 -206,8 -243,1 -377,-67 -185,-93 -231,-137 -277,-261 -18,-46 -22,-80 -22,-159 -1,-115 12,-156 110,-365 54,-116 58,-130 62,-212 4,-87 -8,-242 -30,-388 -7,-53 -24,-100 -54,-160 -50,-100 -61,-161 -44,-256 15,-89 39,-143 127,-291 l 72,-122 -16,-38 c -27,-64 -28,-200 -3,-363 16,-105 21,-172 18,-243 l -5,-97 -82,-163 c -122,-241 -121,-281 8,-471 109,-162 119,-201 80,-331 -16,-54 -24,-127 -34,-320 -17,-299 -26,-357 -71,-456 -19,-42 -34,-88 -34,-103 0,-65 53,-140 125,-179 36,-20 55,-22 180,-22 91,0 176,7 244,19 127,22 132,20 140,-83 l 6,-71 54,-32 c 62,-38 90,-71 100,-119 6,-30 12,-35 67,-51 82,-24 101,-46 87,-98 -12,-45 -13,-45 45,-25 31,11 48,12 62,5 18,-10 24,-24 47,-119 8,-31 12,-34 53,-37 25,-2 59,-9 76,-14 50,-17 116,-90 154,-171 19,-41 36,-76 37,-78 2,-2 46,-14 99,-25 l 97,-21 12,-46 c 6,-26 32,-74 59,-110 43,-57 54,-65 99,-77 50,-12 64,-20 171,-97 27,-19 60,-38 75,-42 39,-9 49,-20 56,-66 11,-66 21,-77 66,-77 83,0 135,-42 127,-101 -4,-29 -4,-29 44,-29 85,0 126,-35 142,-122 l 7,-38 89,0 89,0 7,-36 c 3,-19 4,-55 0,-80 -6,-43 -5,-44 24,-44 16,0 49,10 73,21 30,15 53,20 71,15 l 26,-6 -25,-50 c -44,-87 -41,-90 85,-106 30,-3 62,-10 71,-15 23,-12 30,-58 12,-85 -23,-35 -5,-52 21,-20 17,22 33,28 92,35 88,11 116,6 145,-25 19,-21 21,-28 11,-42 -7,-9 -18,-28 -24,-42 -17,-34 -31,-44 -118,-89 -225,-115 -557,-216 -945,-285 -271,-48 -514,-78 -1285,-156 -599,-61 -923,-110 -1043,-159 -74,-29 -135,-43 -250,-56 -38,-4 -66,-14 -85,-29 -15,-13 -75,-46 -134,-74 -101,-49 -108,-54 -141,-109 -77,-127 -88,-141 -122,-158 -20,-9 -48,-15 -63,-13 -25,3 -28,8 -48,101 -24,113 -51,157 -262,431 -68,88 -155,206 -193,261 -65,96 -118,162 -275,347 -39,45 -128,166 -197,268 -69,102 -183,257 -252,345 -223,282 -284,374 -320,483 -22,68 -52,102 -140,162 -79,53 -131,107 -141,145 -6,26 65,165 149,290 57,84 162,185 228,218 31,15 212,70 403,122 537,146 772,194 1059,216 200,15 302,7 462,-36 186,-50 246,-47 313,18 39,37 40,56 6,88 -24,23 -31,24 -122,20 -229,-11 -231,-10 -211,88 21,107 6,253 -43,431 l -42,155 -1,515 0,515 -30,155 c -29,154 -29,156 -29,525 0,219 5,424 12,502 10,108 10,247 -3,775 -13,524 -14,698 -5,938 l 12,295 -42,37 c -50,45 -100,61 -152,49 -41,-10 -70,-28 -181,-118 -103,-84 -149,-106 -198,-99 -22,3 -57,9 -79,12 -27,4 -63,-1 -112,-16 -85,-26 -162,-35 -212,-26 -55,10 -83,55 -113,183 -14,59 -31,114 -37,122 -6,8 -30,23 -54,33 -91,41 -260,16 -342,-51 -34,-28 -35,-30 -38,-110 -3,-76 -5,-85 -38,-128 -69,-90 -120,-218 -149,-376 -12,-63 -25,-101 -47,-133 -16,-25 -50,-106 -74,-180 -24,-74 -50,-145 -59,-157 -11,-15 -15,-47 -15,-113 0,-80 -2,-93 -21,-110 -31,-27 -55,-86 -74,-184 -20,-101 -21,-102 -101,-208 -62,-81 -94,-153 -94,-211 0,-38 24,-116 59,-198 51,-118 64,-190 64,-358 0,-166 -19,-281 -72,-437 l -29,-87 38,-76 c 21,-41 56,-99 77,-128 l 40,-52 6,-155 c 4,-85 14,-218 22,-295 19,-183 19,-429 0,-520 -32,-150 -36,-130 49,-248 52,-72 59,-121 60,-467 1,-283 3,-309 22,-363 l 21,-58 -21,-11 c -48,-25 -102,-78 -169,-163 -87,-111 -152,-180 -194,-206 -30,-19 -34,-19 -56,-4 -13,8 -58,22 -98,31 -150,30 -160,40 -126,131 14,37 52,149 84,248 38,117 71,200 96,240 71,113 71,113 70,300 0,122 -6,208 -21,305 -84,535 -76,426 -77,1020 0,294 4,841 8,1215 5,374 5,748 0,830 -8,137 -7,154 10,190 11,22 26,47 34,56 11,14 12,28 3,84 -13,82 -14,302 -1,410 6,44 19,154 30,245 10,91 22,207 25,258 l 6,92 -40,29 c -56,40 -116,54 -210,49 -44,-3 -83,-7 -86,-11 -3,-3 -33,-70 -66,-149 -71,-170 -166,-453 -238,-708 -46,-161 -57,-190 -86,-220 -27,-28 -34,-44 -34,-75 -1,-22 -7,-69 -15,-105 -8,-36 -14,-79 -15,-96 0,-19 -8,-38 -21,-50 -37,-33 -49,-77 -49,-182 0,-104 7,-122 46,-122 33,0 38,15 44,122 5,89 8,100 33,126 15,15 27,39 27,51 0,13 24,87 54,165 62,162 125,353 156,476 12,47 30,96 40,110 32,47 57,104 99,230 50,150 89,222 139,254 37,24 82,42 82,32 0,-10 -83,-307 -117,-416 -19,-63 -99,-315 -178,-560 -212,-657 -252,-793 -330,-1113 -24,-98 -45,-180 -47,-182 -9,-9 -254,-76 -345,-94 -169,-33 -288,-44 -427,-38 -218,9 -313,48 -419,173 -114,134 -190,332 -273,714 -78,359 -106,471 -145,589 -36,107 -39,123 -39,229 0,111 -2,119 -50,262 -56,165 -61,216 -29,270 45,74 63,71 108,-19 35,-70 47,-121 66,-298 16,-145 42,-267 96,-452 48,-164 77,-289 90,-386 7,-55 21,-109 35,-137 36,-71 97,-264 140,-441 37,-157 38,-159 79,-193 54,-43 130,-77 230,-100 66,-16 118,-19 290,-18 185,1 224,4 330,26 153,33 179,43 170,66 -20,51 -35,160 -29,211 8,66 39,171 65,223 l 19,37 -40,28 c -49,35 -80,89 -80,139 0,20 11,69 24,108 14,39 45,166 70,281 24,116 56,242 70,281 14,39 26,78 26,85 0,8 30,109 66,224 36,116 74,248 84,295 22,100 34,250 22,267 -13,21 -77,-3 -111,-42 -41,-47 -50,-86 -66,-288 -15,-184 -24,-223 -62,-274 -20,-28 -24,-47 -28,-125 -2,-53 -10,-113 -20,-138 -9,-25 -36,-136 -60,-247 -49,-223 -65,-285 -89,-331 -12,-23 -15,-46 -10,-86 6,-51 5,-56 -20,-78 -24,-21 -28,-32 -34,-115 -8,-95 -22,-125 -62,-136 -14,-4 -22,3 -29,26 -17,47 -13,111 14,247 29,147 31,205 9,261 -19,47 -79,95 -130,105 -45,8 -44,34 1,68 59,45 59,48 60,321 1,209 5,283 27,450 33,253 42,363 34,419 -6,40 -10,44 -39,48 -18,3 -39,8 -48,12 -11,5 -27,-2 -45,-18 l -29,-24 -1,-174 c -1,-95 -7,-240 -13,-323 -6,-82 -11,-246 -11,-363 0,-166 -3,-220 -15,-249 -20,-47 -19,-69 4,-85 16,-11 17,-20 10,-63 -12,-78 -10,-164 7,-308 17,-141 15,-274 -6,-319 -24,-51 -30,-38 -44,86 -7,55 -20,76 -47,76 -29,0 -38,30 -54,185 -27,274 -67,484 -189,995 -41,173 -83,353 -92,399 l -18,83 -120,-5 c -96,-3 -143,-11 -224,-35 l -103,-31 -52,24 c -125,55 -325,58 -427,8 l -55,-28 -12,-135 c -7,-74 -14,-220 -15,-325 -2,-187 -1,-191 25,-245 21,-43 27,-70 27,-125 0,-38 9,-160 20,-271 10,-110 26,-340 34,-510 28,-558 37,-697 54,-824 14,-106 17,-227 17,-805 0,-677 2,-718 36,-913 9,-52 8,-86 -6,-190 -41,-290 5,-502 200,-921 157,-339 216,-506 238,-666 7,-45 23,-30 -193,-178 -376,-257 -803,-458 -1240,-583 l -125,-36 -34,-75 C 438,3976 364,3917 215,3884 114,3862 81,3848 47,3814 21,3788 20,3783 20,3685 20,3629 15,3559 10,3529 0,3476 0,3476 46,3406 c 26,-38 99,-124 163,-190 93,-96 127,-139 165,-209 66,-124 201,-334 384,-597 263,-378 409,-607 503,-790 27,-52 47,-75 103,-116 64,-48 73,-59 120,-155 28,-57 65,-124 82,-149 17,-25 84,-133 148,-240 136,-224 166,-265 279,-370 64,-61 96,-101 146,-186 161,-274 208,-336 286,-377 32,-17 57,-21 130,-21 108,0 155,17 290,107 64,43 122,71 204,99 225,77 451,190 815,408 179,106 200,115 305,127 45,5 74,18 160,73 182,116 383,219 781,401 408,187 385,173 445,271 11,18 28,34 38,36 10,2 60,-24 110,-57 113,-74 125,-78 262,-90 88,-7 126,-15 184,-40 91,-39 133,-39 218,-1 38,16 118,41 178,56 110,26 240,78 262,105 6,8 21,39 32,70 24,64 40,81 92,99 34,12 41,11 97,-18 34,-18 73,-32 87,-32 14,0 73,16 129,35 57,19 233,66 390,105 158,39 337,89 399,112 172,63 199,68 382,74 200,7 234,14 459,100 228,87 272,97 371,90 98,-8 160,7 407,98 194,71 194,71 370,86 125,11 156,17 270,59 33,12 187,41 360,67 339,51 493,81 633,124 120,37 128,42 157,87 36,58 31,153 -12,261 -39,97 -40,98 -225,207 -257,153 -340,223 -399,340 -33,65 -56,145 -56,195 0,31 -10,45 -77,111 -94,92 -126,114 -197,139 -37,12 -92,49 -176,115 -152,122 -810,605 -933,686 -51,34 -109,77 -131,97 -35,34 -75,101 -76,128 0,7 39,14 106,18 59,4 179,16 268,27 143,19 194,20 451,15 380,-8 1177,28 1560,70 77,8 190,16 252,17 108,2 112,3 150,33 47,38 87,116 110,215 22,97 24,467 3,734 -18,232 -19,856 -1,1095 13,178 43,424 61,506 l 11,51 107,17 c 385,62 517,144 554,346 11,56 10,62 -8,74 -10,8 -64,48 -118,89 -55,42 -128,92 -163,113 -73,42 -83,56 -83,113 0,60 -25,81 -97,81 -94,1 -200,18 -241,39 l -39,20 5,73 c 2,40 -3,129 -12,196 -20,157 -20,272 1,492 9,96 17,272 17,390 1,195 -1,221 -21,285 -24,77 -71,155 -107,179 -13,8 -66,22 -117,31 -114,20 -181,47 -215,89 -25,29 -26,35 -21,111 3,44 20,148 37,230 55,255 44,366 -43,440 -67,57 -145,76 -327,80 -85,2 -175,1 -200,-1 z m 200,-156 c 36,-6 75,-15 88,-19 20,-8 21,-11 10,-30 -34,-56 -166,-85 -306,-68 -83,10 -192,49 -192,68 0,22 85,54 160,60 86,7 148,5 240,-11 z m -576,-4 c 14,-38 6,-91 -18,-113 -32,-30 -97,-37 -806,-86 -254,-18 -274,-20 -450,-47 -121,-19 -166,-21 -425,-17 -159,2 -385,4 -502,3 l -211,-1 -32,-26 c -56,-48 -114,-58 -385,-67 -221,-7 -257,-10 -307,-29 -65,-25 -112,-72 -127,-128 -24,-86 -9,-140 64,-229 25,-31 49,-62 53,-70 11,-20 316,-92 424,-100 136,-11 196,20 211,106 11,58 -1,64 -73,40 -129,-43 -258,-37 -329,17 -37,29 -56,66 -66,135 -7,45 -6,47 26,63 59,31 135,31 219,0 41,-15 89,-27 105,-26 17,0 89,17 160,37 172,49 205,52 251,23 36,-22 37,-22 108,-5 197,46 413,64 821,71 359,6 475,14 856,56 422,45 611,55 797,41 208,-17 226,-21 230,-53 5,-47 -25,-55 -213,-64 -215,-9 -257,-9 -327,0 l -58,7 0,-30 c 0,-63 78,-122 161,-122 36,0 47,6 79,40 l 37,40 156,0 c 86,0 167,-4 181,-10 25,-9 26,-13 26,-87 0,-101 -6,-109 -54,-87 -35,17 -40,17 -100,1 -83,-22 -104,-21 -195,4 -74,21 -88,21 -541,16 -256,-3 -665,-11 -909,-18 -348,-9 -509,-9 -745,0 -166,7 -325,15 -355,18 l -54,6 6,-43 c 9,-71 18,-75 180,-76 78,-1 219,-6 312,-12 204,-14 815,-15 1350,-2 215,5 466,6 558,3 l 168,-6 39,-50 c 43,-53 55,-112 25,-123 -26,-11 -1402,26 -1960,52 -374,18 -602,14 -719,-11 -49,-10 -98,-32 -170,-75 -56,-32 -116,-65 -135,-71 -58,-20 -193,-5 -308,34 -56,20 -117,37 -135,39 -31,3 -34,0 -47,-38 -12,-34 -12,-44 0,-69 25,-50 63,-70 135,-70 35,0 64,-3 64,-6 0,-20 80,-93 132,-118 77,-39 166,-43 229,-11 43,23 99,99 99,136 0,20 6,22 65,26 53,3 71,9 102,34 l 38,31 100,-13 c 240,-31 419,-39 845,-38 368,1 448,3 520,18 193,38 203,39 283,8 l 72,-27 395,0 395,0 25,-64 c 38,-93 51,-101 177,-101 150,0 190,-24 308,-181 94,-126 96,-143 18,-192 -48,-30 -60,-57 -43,-96 14,-36 48,-51 110,-51 83,0 75,-24 -19,-55 -53,-17 -101,-53 -101,-75 0,-5 9,-19 20,-30 18,-18 33,-20 153,-19 72,0 140,-2 149,-6 20,-8 58,-69 58,-93 0,-9 -25,-40 -56,-68 -31,-29 -53,-57 -50,-63 3,-5 23,-15 44,-21 67,-22 82,-36 82,-80 0,-29 -7,-46 -26,-65 -28,-28 -40,-30 -130,-19 -168,19 -323,-83 -425,-278 l -42,-81 17,-46 c 22,-64 20,-154 -8,-301 -43,-223 -58,-177 122,-363 141,-146 160,-162 189,-161 66,2 99,40 160,187 43,104 86,150 136,145 30,-3 32,-6 35,-49 4,-56 -18,-87 -88,-125 -28,-15 -50,-31 -50,-35 0,-15 31,-38 67,-49 21,-7 44,-17 51,-23 22,-17 8,-68 -37,-143 -48,-79 -51,-111 -15,-153 19,-23 22,-32 12,-36 -7,-3 -31,-11 -53,-18 -68,-23 -55,-70 27,-96 50,-16 63,-33 47,-62 -6,-13 -15,-76 -20,-140 -9,-131 -23,-169 -71,-199 l -31,-19 24,-9 c 13,-6 42,-16 64,-24 31,-11 41,-19 43,-40 3,-27 -2,-34 -62,-82 -34,-27 -30,-39 25,-66 42,-22 49,-40 23,-61 -25,-21 -51,-80 -63,-143 -6,-33 -12,-61 -14,-63 -2,-1 -45,-11 -95,-22 -51,-10 -98,-24 -106,-30 -20,-17 -52,-104 -71,-193 -16,-74 -19,-79 -63,-112 -60,-43 -105,-65 -233,-116 -131,-52 -230,-104 -260,-136 -22,-24 -23,-27 -11,-107 19,-136 51,-123 -316,-130 -174,-3 -465,-16 -647,-28 -394,-27 -909,-32 -1075,-11 -102,13 -106,15 -150,56 -25,23 -81,69 -125,103 -90,68 -174,153 -199,201 -11,21 -38,42 -88,69 -129,67 -259,214 -314,351 -16,42 -16,45 5,82 35,63 31,69 -43,55 -72,-14 -145,-6 -196,20 -30,16 -36,15 -103,-6 -194,-59 -290,-72 -354,-48 -41,15 -83,59 -83,87 0,33 16,60 66,112 42,44 44,49 58,141 19,125 35,328 45,561 4,103 9,190 12,192 3,3 70,-2 149,-10 171,-19 327,-14 385,10 47,20 105,73 105,96 0,27 -45,61 -89,67 -23,3 -98,-2 -167,-12 -205,-29 -273,-13 -463,105 l -103,65 4,90 c 5,104 18,138 114,307 57,100 62,114 59,156 -3,26 -12,123 -21,216 -17,175 -15,314 7,375 11,31 14,33 48,27 69,-12 187,-25 312,-36 70,-5 159,-18 199,-27 l 72,-17 30,33 c 40,45 35,76 -19,117 -50,38 -98,50 -253,65 -201,18 -317,37 -362,59 -23,11 -72,45 -108,76 -36,31 -74,59 -86,64 -48,19 -60,186 -20,280 13,30 38,88 55,128 18,40 39,112 48,160 21,118 21,396 -1,517 -15,89 -26,114 -124,298 -47,88 -52,125 -25,203 19,58 121,165 195,206 158,87 302,108 471,69 138,-33 168,-29 287,30 142,72 189,78 457,56 285,-23 398,-23 465,3 87,34 235,49 593,60 539,16 835,35 935,59 56,14 87,12 94,-5 z m -5410,-38 c 15,-20 21,-43 21,-80 0,-46 -6,-61 -49,-125 -46,-69 -49,-77 -55,-161 -5,-49 -14,-98 -22,-108 -63,-87 -80,-117 -107,-192 -37,-102 -84,-262 -158,-544 -80,-304 -99,-358 -170,-492 -71,-135 -77,-169 -45,-241 31,-67 116,-120 262,-163 66,-20 70,-20 101,-3 27,15 69,19 248,23 217,6 239,9 275,40 11,9 40,25 65,35 25,11 47,22 50,26 3,3 20,14 38,23 45,23 102,114 102,162 0,41 -35,123 -56,131 -9,3 -3,17 21,48 25,33 40,70 60,152 45,183 50,203 108,378 35,108 58,197 63,245 6,60 13,82 34,110 36,46 50,91 50,162 0,46 5,64 21,81 28,30 52,78 79,162 47,145 96,215 150,215 l 30,0 0,-88 c 0,-121 -24,-208 -109,-394 -92,-202 -119,-282 -132,-398 -8,-64 -21,-116 -40,-161 -39,-88 -53,-138 -90,-309 -17,-80 -37,-169 -46,-198 l -15,-53 37,-75 c 32,-65 37,-82 31,-120 -13,-100 -67,-159 -213,-236 -107,-57 -166,-99 -190,-134 -17,-26 -16,-27 11,-50 36,-32 54,-30 147,12 52,23 91,34 112,32 29,-3 32,-6 35,-42 5,-57 -13,-81 -95,-132 -63,-40 -71,-48 -63,-64 14,-27 50,-50 77,-50 31,0 29,-21 -7,-55 -58,-56 -25,-98 94,-119 43,-7 82,-18 87,-23 5,-5 9,-50 7,-99 l -3,-89 -48,-32 c -60,-40 -178,-78 -305,-99 -109,-17 -414,-20 -477,-5 -69,18 -139,14 -169,-10 -14,-11 -26,-25 -26,-30 0,-21 74,-88 123,-110 49,-23 63,-24 232,-23 155,0 199,4 313,28 73,15 144,31 156,36 27,10 46,-4 46,-32 0,-9 -14,-33 -31,-52 -19,-22 -29,-44 -27,-58 3,-19 12,-24 63,-33 63,-11 73,-22 61,-70 -6,-22 -68,-72 -108,-88 -39,-14 -9,-75 31,-62 14,4 25,-2 40,-24 28,-39 26,-57 -7,-90 -21,-22 -45,-31 -100,-41 -40,-8 -80,-19 -89,-25 -15,-11 -14,-15 9,-38 14,-14 45,-31 68,-37 64,-17 90,-38 90,-70 0,-25 4,-28 44,-33 24,-4 60,-16 80,-27 42,-26 52,-60 41,-155 -5,-50 -11,-65 -25,-70 -10,-3 -65,-36 -123,-74 -150,-97 -184,-105 -407,-96 -163,7 -180,6 -221,-12 -24,-11 -52,-29 -62,-40 -18,-20 -17,-21 12,-42 17,-12 52,-31 78,-43 62,-28 171,-28 343,1 69,12 151,21 183,21 57,0 57,0 57,-30 0,-36 -44,-80 -81,-80 -53,0 -64,-51 -15,-70 33,-12 44,-35 56,-117 5,-37 12,-77 15,-88 7,-25 -15,-39 -108,-71 -38,-13 -85,-35 -103,-49 -29,-22 -46,-26 -128,-31 -117,-5 -245,-37 -401,-99 -141,-56 -254,-95 -271,-95 -9,0 -13,80 -17,338 -5,362 -12,420 -61,528 -14,29 -45,73 -70,98 -25,24 -46,53 -46,64 0,12 21,51 48,89 l 47,68 0,140 c -1,118 -6,166 -34,305 -31,149 -41,265 -41,450 0,6 -24,37 -54,68 -75,80 -76,84 -60,172 7,41 20,161 28,266 12,159 39,334 51,334 1,0 22,-7 45,-15 133,-47 405,-77 515,-56 68,13 143,47 159,74 9,15 7,21 -9,34 -17,12 -42,14 -151,10 -160,-7 -264,11 -400,70 -104,45 -227,124 -251,160 -9,14 -22,52 -29,85 -23,109 6,208 100,343 37,53 44,70 55,150 27,199 85,391 251,825 68,177 132,373 159,485 24,97 31,105 131,157 41,22 47,20 74,-16 z m -2937,-240 c 37,-19 40,-33 49,-216 6,-132 7,-136 41,-188 96,-147 151,-344 223,-797 31,-200 41,-235 63,-235 8,0 19,-10 25,-22 14,-31 52,-299 52,-371 0,-51 -3,-59 -22,-66 -28,-11 -67,4 -137,52 -28,20 -64,38 -81,42 -20,4 -30,13 -30,25 0,42 -36,120 -100,220 -80,124 -100,177 -100,269 0,57 -4,74 -25,102 -58,80 -62,89 -69,172 -10,122 -39,253 -97,431 l -51,160 18,35 c 14,28 19,73 24,201 4,91 10,173 14,182 4,9 20,19 34,21 48,9 138,0 169,-17 z m 3136,-37 c 23,-12 44,-23 46,-25 2,-1 -4,-37 -14,-80 -20,-91 -14,-133 25,-178 27,-30 30,-41 30,-100 0,-96 8,-106 81,-106 33,0 69,5 81,11 l 20,11 -20,21 c -12,12 -39,61 -61,108 -23,47 -50,94 -61,104 -22,20 -27,82 -10,116 15,26 25,24 57,-11 15,-17 33,-28 41,-25 7,3 25,-9 40,-27 22,-26 28,-45 33,-105 7,-80 22,-106 74,-129 17,-8 45,-27 64,-43 l 34,-30 -5,-78 c -4,-57 -16,-110 -48,-198 -23,-66 -51,-151 -61,-189 -10,-39 -29,-80 -40,-92 -16,-17 -23,-43 -29,-102 -9,-89 -23,-123 -69,-166 -25,-24 -31,-38 -31,-70 0,-62 16,-106 52,-143 l 32,-33 -24,-25 c -13,-14 -34,-25 -46,-25 -13,0 -28,-8 -33,-19 -17,-31 -78,-48 -241,-66 -176,-20 -330,-16 -401,9 -25,9 -63,35 -84,56 l -39,40 27,72 c 14,40 74,219 132,398 210,639 276,833 336,985 34,85 64,155 66,155 2,0 23,-10 46,-21 z m 637,-82 c 14,-42 13,-51 -11,-81 l -21,-27 -38,35 c -48,43 -98,56 -117,30 -8,-11 -11,-30 -8,-44 7,-29 42,-63 57,-54 19,12 58,-38 58,-75 0,-36 -30,-113 -47,-124 -21,-13 -61,42 -68,92 -9,66 -39,111 -94,138 -85,43 -102,80 -57,122 23,22 26,22 48,7 31,-22 80,-20 167,8 86,27 114,22 131,-27 z m 5135,-462 c 33,-15 76,-19 235,-25 170,-5 201,-9 244,-28 48,-22 48,-23 31,-42 -35,-38 -102,-55 -220,-55 -113,1 -174,11 -282,48 l -63,21 0,54 c 0,29 3,52 8,50 4,-2 25,-12 47,-23 z m -9528,-151 c 12,-20 18,-58 23,-148 6,-121 6,-121 49,-194 43,-72 44,-74 52,-195 6,-97 15,-147 45,-242 103,-339 97,-305 98,-485 l 2,-165 48,-135 c 90,-255 128,-447 130,-665 1,-130 -1,-148 -32,-259 -24,-84 -34,-140 -34,-190 0,-67 4,-78 57,-181 52,-101 55,-112 45,-140 -16,-40 -16,-204 0,-336 7,-58 10,-150 8,-205 -4,-86 -10,-111 -44,-194 -70,-170 -52,-266 74,-402 l 59,-63 8,-160 c 10,-204 8,-261 -13,-308 l -17,-39 -28,22 c -37,30 -60,77 -90,191 -16,61 -60,168 -117,290 -141,298 -176,419 -202,704 -11,123 -10,134 10,202 24,76 27,152 13,248 -5,33 -14,218 -20,410 -46,1445 -60,1668 -128,2030 -41,222 -53,418 -33,552 7,46 14,83 16,83 2,0 11,-12 21,-26 z m 9888,-105 c 72,-6 163,-9 204,-7 l 74,3 -6,-175 c -6,-182 -19,-255 -60,-338 -17,-35 -24,-41 -41,-36 -12,4 -21,7 -22,8 0,0 -18,33 -39,71 -21,39 -78,132 -127,207 l -89,136 -72,12 c -151,24 -176,31 -207,60 -39,37 -39,58 3,64 93,16 150,15 382,-5 z M 6370,9419 c 0,-22 -14,-75 -31,-117 -17,-43 -33,-102 -36,-132 -5,-51 -2,-62 41,-142 l 45,-87 -25,-83 c -41,-136 -54,-205 -54,-279 0,-77 13,-118 55,-167 27,-33 28,-35 16,-88 -7,-30 -33,-98 -58,-150 l -45,-96 31,-67 c 17,-37 40,-94 52,-126 27,-76 36,-223 19,-294 -12,-49 -11,-54 13,-89 53,-77 70,-210 47,-348 -26,-149 -95,-414 -108,-414 -23,0 -70,55 -81,96 -22,77 -11,157 49,369 47,164 47,170 13,213 -60,75 -68,99 -67,205 1,53 -2,97 -6,97 -13,0 -40,-30 -40,-45 0,-7 -8,-23 -18,-35 -13,-17 -24,-21 -40,-16 -20,7 -22,14 -22,72 l 0,64 43,0 c 24,0 56,8 74,19 59,36 56,93 -7,135 -27,18 -40,33 -40,49 0,49 21,244 31,289 13,56 9,64 -59,118 -29,23 -55,47 -58,55 -3,7 17,67 45,133 75,177 75,172 6,236 l -58,53 16,49 c 9,27 28,117 42,199 30,175 49,247 77,294 25,40 73,71 111,71 25,0 27,-3 27,-41 z m 5394,-135 c 19,-50 -6,-94 -53,-94 -56,0 -59,47 -5,89 32,25 50,27 58,5 z M 3890,9010 c 46,-23 46,-27 26,-141 -17,-92 -37,-134 -76,-154 -42,-22 -49,-19 -67,22 -30,74 -7,216 45,276 19,22 24,21 72,-3 z m -136,-455 c 14,-14 22,-50 28,-130 2,-23 10,-32 32,-40 26,-9 31,-6 61,29 39,46 61,44 71,-9 20,-108 -19,-238 -86,-282 -48,-33 -57,-30 -64,28 -13,93 -64,164 -152,211 -24,12 -44,29 -44,36 0,28 31,83 71,126 45,49 59,55 83,31 z m 8101,-29 c 13,-20 14,-32 5,-65 -6,-22 -15,-43 -21,-46 -18,-12 -38,16 -45,62 -6,38 -4,49 12,60 25,18 31,17 49,-11 z M 2408,8422 c 138,-53 224,-66 447,-65 118,0 242,6 302,15 98,14 102,14 107,-5 16,-61 -80,-147 -185,-166 -44,-7 -71,-18 -88,-36 l -25,-25 22,-22 c 41,-42 157,-14 157,38 0,32 39,29 69,-6 52,-63 25,-95 -130,-149 -59,-21 -110,-43 -111,-48 -6,-16 30,-53 52,-55 11,-1 52,1 92,6 82,9 109,3 118,-25 12,-37 -20,-67 -93,-89 -78,-23 -102,-43 -102,-86 0,-65 49,-71 145,-18 60,33 68,35 95,24 53,-22 32,-72 -35,-84 -25,-5 -39,-15 -48,-33 -18,-39 22,-67 114,-81 45,-7 78,-17 85,-27 27,-36 28,-199 2,-248 -5,-10 -25,-25 -43,-33 -78,-32 -133,-37 -425,-39 -283,-1 -380,-10 -380,-34 0,-16 42,-61 69,-75 15,-8 75,-19 134,-24 78,-8 118,-16 143,-31 46,-27 134,-28 230,-1 39,11 96,21 125,23 l 54,2 3,-57 c 3,-56 3,-56 -30,-66 -18,-6 -60,-13 -93,-17 -96,-11 -143,-46 -109,-80 24,-23 56,-28 120,-16 81,15 108,14 134,-7 18,-14 21,-25 17,-44 -8,-32 -23,-38 -116,-49 -86,-10 -103,-21 -99,-63 l 3,-31 89,0 c 71,0 91,-3 99,-16 18,-29 -14,-62 -79,-83 -77,-24 -94,-40 -94,-87 0,-33 3,-38 29,-44 17,-4 65,2 116,14 48,12 110,21 140,21 l 53,0 21,-45 c 30,-64 28,-134 -4,-169 -56,-61 -173,-94 -430,-121 -184,-19 -296,-35 -312,-44 -22,-12 23,-70 70,-91 53,-25 111,-25 267,0 196,31 304,24 293,-20 -8,-29 -33,-47 -93,-67 -70,-23 -75,-43 -21,-80 49,-34 50,-59 2,-85 -31,-18 -35,-18 -58,-3 -31,21 -53,13 -53,-18 0,-18 8,-28 30,-36 17,-6 44,-16 61,-23 44,-16 59,-35 59,-72 0,-65 -57,-104 -109,-76 -14,7 -23,4 -37,-11 -30,-34 -92,-65 -200,-103 -56,-19 -124,-46 -152,-60 -47,-24 -112,-79 -112,-95 0,-11 -151,-31 -230,-31 l -65,0 3,94 c 2,52 -3,153 -12,225 -22,183 -21,262 5,313 43,84 13,193 -76,277 l -55,52 14,57 c 40,153 48,244 56,657 4,226 11,418 15,428 15,35 -4,68 -51,88 -25,11 -47,26 -50,33 -3,7 3,55 12,107 22,126 30,530 15,681 -10,96 -16,120 -41,158 -31,49 -60,121 -60,151 0,10 4,29 10,43 l 10,26 60,-44 c 33,-25 95,-58 138,-74 z m 9815,22 c 14,-4 17,-17 17,-74 0,-78 -4,-81 -89,-69 -59,8 -93,46 -89,98 3,31 8,38 38,48 32,11 77,10 123,-3 z m -571,-11 c 9,-10 18,-42 20,-71 4,-40 12,-60 33,-82 35,-36 125,-77 217,-97 105,-23 311,-21 405,4 l 72,19 10,-22 c 5,-12 28,-37 51,-55 23,-19 54,-44 68,-56 l 27,-21 -30,-32 c -73,-77 -167,-111 -403,-145 -212,-31 -279,-47 -344,-82 -46,-25 -110,-86 -133,-127 -9,-16 -15,-17 -54,-6 -56,15 -95,56 -110,114 -6,25 -11,118 -11,208 0,127 -4,173 -17,209 -16,47 -16,47 11,93 33,56 138,166 158,166 8,0 22,-8 30,-17 z M 3774,7956 c 23,-22 24,-27 21,-166 -4,-159 -4,-160 -72,-160 l -42,0 -12,58 c -15,74 -7,217 15,260 20,39 56,43 90,8 z m 185,-245 c 18,-111 15,-154 -13,-180 -30,-29 -59,-21 -76,19 -7,17 -17,30 -22,30 -18,0 2,143 23,163 11,10 19,22 19,27 0,6 13,10 29,10 27,0 28,-2 40,-69 z m -111,-363 c 28,-28 4,-148 -43,-219 -29,-44 -49,-45 -92,-7 -71,65 -9,238 86,238 20,0 42,-5 49,-12 z m 25,-525 c 9,-9 22,-34 28,-55 21,-79 -46,-215 -102,-206 -71,10 -79,197 -12,271 19,21 56,16 86,-10 z m 41,-478 c 28,-22 27,-99 -3,-128 -29,-29 -104,-30 -126,-1 -57,75 54,186 129,129 z m 7929,-429 c 15,-12 17,-38 17,-278 0,-227 -9,-360 -24,-375 -2,-3 -91,-16 -198,-29 -207,-27 -452,-29 -512,-5 -27,11 -28,14 -23,58 8,71 47,102 172,137 55,15 121,41 147,58 63,40 139,123 217,238 95,140 152,210 170,210 9,0 24,-7 34,-14 z M 3768,5787 c 16,-32 8,-100 -13,-117 -33,-28 -82,46 -68,102 14,55 58,63 81,15 z m 169,-500 c 57,-16 148,-57 177,-79 29,-22 23,-65 -14,-103 -18,-18 -29,-38 -26,-44 11,-17 84,-33 176,-40 84,-6 85,-6 88,-34 3,-23 -5,-37 -42,-71 -50,-45 -59,-78 -27,-96 11,-5 68,-10 126,-10 104,0 107,-1 136,-29 16,-16 29,-37 29,-46 0,-17 -38,-57 -84,-88 -20,-14 -26,-26 -24,-45 l 3,-27 107,-3 c 102,-3 108,-4 128,-29 31,-40 10,-63 -79,-88 -39,-11 -71,-25 -71,-30 0,-19 31,-55 60,-70 16,-8 80,-22 142,-30 119,-16 150,-29 178,-79 19,-33 11,-39 -70,-55 -68,-14 -101,-41 -79,-67 22,-27 89,-53 180,-70 99,-19 139,-34 167,-64 31,-33 14,-56 -56,-76 -31,-9 -63,-21 -69,-26 -19,-15 -16,-52 5,-78 18,-22 21,-22 88,-10 89,16 125,11 135,-17 6,-18 1,-31 -26,-64 -19,-22 -35,-47 -35,-55 0,-14 37,-26 131,-44 59,-11 82,-29 92,-69 6,-23 -3,-35 -74,-95 -24,-20 -24,-38 0,-67 17,-21 29,-24 129,-29 61,-3 113,-8 115,-10 18,-20 16,-51 -5,-70 -13,-11 -35,-31 -50,-45 -32,-28 -36,-50 -10,-60 9,-4 70,-11 135,-15 156,-11 161,-14 158,-113 -2,-69 0,-79 22,-101 14,-13 46,-36 73,-49 72,-37 105,-76 111,-131 3,-25 2,-46 -2,-46 -5,0 -47,7 -94,16 -68,13 -124,15 -266,11 -200,-7 -282,-19 -589,-92 -215,-51 -310,-86 -606,-225 -174,-81 -1090,-555 -1185,-613 -27,-16 -112,-61 -188,-99 -170,-84 -221,-116 -317,-200 -80,-69 -126,-98 -159,-98 -12,0 -48,27 -84,63 -61,60 -112,131 -228,320 -30,49 -79,119 -109,155 -30,37 -71,93 -90,125 -19,33 -65,92 -101,132 -36,40 -69,83 -72,97 -12,46 -61,123 -114,177 -28,30 -59,72 -68,95 -30,76 -85,165 -163,263 -165,211 -202,265 -264,389 -115,228 -273,485 -426,693 -34,47 -62,94 -62,106 0,26 53,82 95,99 17,8 74,21 127,30 168,28 306,97 618,306 113,75 230,150 260,165 67,34 112,64 252,167 201,149 322,204 465,213 60,4 87,12 160,48 234,117 498,195 818,241 59,9 291,-3 342,-17 z M 827,3818 c 144,-203 292,-447 397,-657 l 37,-73 -31,-60 c -28,-52 -30,-62 -18,-74 20,-20 44,-9 58,27 7,16 16,32 20,34 8,5 195,-226 257,-318 20,-29 49,-81 66,-116 29,-62 30,-64 11,-78 -10,-8 -32,-13 -49,-11 -23,2 -33,11 -50,46 -11,23 -25,42 -31,42 -21,0 -38,32 -36,64 3,40 -4,50 -64,89 -44,29 -49,36 -52,75 -4,52 -19,54 -71,7 -47,-42 -81,-47 -81,-10 0,29 -32,65 -58,65 -36,0 -62,-29 -62,-71 0,-35 -3,-39 -25,-39 -35,0 -68,35 -59,63 13,42 34,75 60,96 24,19 26,23 11,34 -9,6 -36,55 -60,107 -38,80 -57,107 -121,170 -42,41 -76,81 -76,90 0,29 -48,116 -104,190 -63,83 -101,156 -111,213 l -6,37 45,0 c 39,0 48,-4 78,-39 19,-22 55,-80 81,-130 63,-119 122,-193 149,-189 34,5 31,23 -11,72 -22,25 -66,94 -98,152 -32,59 -75,124 -95,145 -27,28 -38,48 -38,70 0,42 26,88 51,89 3,0 42,-51 86,-112 z m -427,-94 c 0,-47 -44,-70 -71,-38 -11,14 -10,19 10,35 28,23 61,25 61,3 z m 10074,-94 c 35,-13 50,-44 35,-72 -16,-31 -28,-38 -64,-38 -41,0 -55,16 -55,62 0,31 5,41 23,48 29,12 31,12 61,0 z M 437,3353 c 106,-153 287,-415 403,-583 117,-168 312,-455 434,-637 121,-183 229,-335 240,-339 13,-4 27,3 47,26 28,30 49,33 49,6 0,-7 -11,-25 -25,-40 -14,-15 -25,-32 -25,-38 0,-16 171,-262 443,-638 405,-557 497,-690 497,-712 0,-32 -47,-71 -77,-63 -44,11 -108,82 -159,175 -62,116 -93,153 -148,179 -35,18 -45,28 -50,54 -8,42 -66,164 -107,225 -18,26 -73,99 -123,162 -106,134 -164,214 -344,478 -158,231 -274,392 -354,490 -37,45 -61,84 -63,104 -3,17 -9,36 -15,42 -5,5 -10,19 -10,29 0,11 -15,38 -34,61 -18,23 -93,129 -166,236 -157,231 -205,295 -280,375 -41,44 -61,75 -73,116 -19,64 -62,133 -166,269 -72,95 -133,207 -146,268 -6,31 -6,32 27,32 34,0 39,-6 225,-277 z m 10161,-7 c 61,-32 24,-99 -63,-112 -47,-7 -147,0 -178,12 -22,8 -22,46 1,73 40,50 169,64 240,27 z M 827,3188 c 60,-59 63,-65 63,-110 0,-55 -10,-60 -60,-25 -22,14 -45,46 -66,87 -47,98 -50,110 -22,110 14,0 45,-22 85,-62 z m 9334,42 c 19,-5 48,-24 65,-41 l 29,-31 -35,-29 c -40,-34 -100,-53 -219,-70 -48,-7 -111,-24 -147,-40 -90,-41 -252,-72 -341,-66 -78,6 -147,31 -178,66 -19,22 -19,23 0,37 21,16 41,17 200,14 127,-2 164,8 349,91 103,47 190,77 226,78 8,1 31,-4 51,-9 z M 8284,3040 c 14,-5 26,-14 26,-20 0,-33 -170,-57 -219,-30 -28,14 -27,38 2,50 30,12 160,12 191,0 z m 2751,-20 c 16,-26 -8,-72 -57,-107 -47,-34 -53,-36 -141,-38 -73,-1 -112,-8 -190,-34 -124,-41 -217,-61 -286,-61 -47,0 -58,-4 -92,-35 l -39,-35 -146,0 c -156,0 -207,-12 -219,-51 -4,-10 -18,-28 -32,-39 -24,-18 -40,-20 -214,-20 -147,0 -189,3 -189,13 0,26 31,55 82,78 44,19 70,23 148,23 52,-1 107,-6 121,-12 23,-9 30,-7 49,13 60,64 192,94 333,76 103,-14 116,-8 136,59 l 12,40 65,0 c 87,0 193,23 327,71 62,22 135,47 162,54 60,16 161,19 170,5 z m -3108,-41 c 49,-19 62,-69 17,-69 -14,0 -59,-10 -99,-21 -78,-23 -132,-21 -160,7 -33,34 -13,63 56,79 67,17 149,18 186,4 z m -716,-20 c 27,-12 49,-25 49,-28 0,-4 -12,-18 -26,-32 -35,-32 -119,-34 -161,-3 -34,25 -43,70 -16,77 44,11 108,5 154,-14 z m 827,-229 c 4,-33 -35,-91 -73,-110 -21,-11 -71,-16 -169,-18 l -139,-4 7,34 c 11,59 33,68 163,68 113,0 114,0 141,29 33,36 66,36 70,1 z m 2992,22 c 0,-28 -74,-65 -175,-87 -44,-9 -100,-28 -125,-41 -35,-18 -101,-31 -290,-59 -365,-53 -455,-72 -543,-111 -71,-33 -82,-35 -145,-29 -63,6 -78,3 -237,-49 -252,-81 -358,-105 -995,-221 -200,-37 -267,-53 -312,-76 -73,-37 -175,-61 -393,-93 -259,-39 -312,-51 -462,-107 -108,-41 -154,-53 -213,-56 -70,-4 -78,-3 -122,26 -39,25 -48,36 -48,60 0,35 10,43 79,66 32,11 68,32 90,54 l 37,37 75,-7 c 41,-4 112,-3 159,2 102,11 453,85 675,142 154,39 167,41 325,42 183,1 183,1 398,84 182,69 225,79 392,86 229,9 243,12 302,53 53,37 54,37 158,38 113,0 151,13 219,69 31,27 31,27 198,26 186,-2 217,4 282,51 45,32 45,32 180,33 126,2 145,5 251,38 111,34 240,50 240,29 z m -9868,-90 c 6,-57 -3,-69 -36,-54 -17,8 -27,22 -32,46 -9,51 -1,64 34,58 28,-4 30,-8 34,-50 z m 158,-7 c 0,-12 -7,-26 -16,-29 -25,-9 -28,0 -14,34 14,33 30,31 30,-5 z m 4125,-79 27,-18 -28,-30 c -67,-69 -257,-130 -344,-109 -45,11 -70,22 -70,30 0,8 112,83 160,107 94,47 201,55 255,20 z m 3615,9 c 20,-24 7,-47 -35,-62 -36,-12 -41,-12 -52,4 -17,22 -17,60 0,66 26,11 75,6 87,-8 z m -7597,-58 c 16,-31 32,-57 37,-57 14,0 40,-55 40,-84 0,-29 -30,-54 -63,-52 -17,1 -23,9 -27,36 -8,49 -16,58 -43,53 -13,-3 -42,0 -65,7 -34,9 -42,15 -42,34 0,13 9,35 20,49 11,14 20,32 20,41 0,9 12,18 28,22 15,3 32,7 37,9 21,7 31,-3 58,-58 z m -210,32 c 8,-28 -9,-69 -28,-69 -11,0 -15,11 -15,45 0,37 3,45 19,45 11,0 21,-9 24,-21 z m 8112,6 c -57,-24 -75,-27 -75,-12 0,22 11,27 59,26 l 46,-1 -30,-13 z m -637,-61 c 50,-14 -8,-60 -95,-76 -78,-14 -159,1 -193,37 l -22,23 59,7 c 32,4 63,8 68,10 18,6 159,5 183,-1 z M 1729,2404 c 47,-50 94,-142 82,-159 -49,-64 -121,-153 -135,-164 -9,-8 -27,-16 -39,-18 -12,-1 -31,-4 -42,-5 -37,-5 -26,29 28,88 52,57 77,93 77,112 0,5 -16,29 -35,53 -43,54 -48,109 -12,127 32,15 31,16 76,-34 z m 6594,15 c 8,-11 13,-29 10,-40 -4,-15 -14,-19 -49,-19 -37,0 -44,3 -44,20 0,23 33,60 54,60 8,0 21,-9 29,-21 z m -335,-51 c 18,-18 15,-33 -14,-61 -54,-54 -242,-92 -333,-67 -47,12 -99,56 -85,70 5,5 78,16 163,26 84,9 174,22 200,29 25,7 48,13 52,14 3,0 10,-4 17,-11 z M 1440,2260 c -7,-22 -19,-40 -27,-40 -21,0 -53,38 -53,64 0,21 5,25 38,28 51,4 58,-4 42,-52 z m 4911,19 c 62,-27 131,-102 153,-166 23,-66 22,-67 -33,-60 -118,14 -216,90 -246,190 -8,28 -15,55 -15,60 0,15 84,0 141,-24 z m 865,-81 c 10,-16 -33,-48 -65,-48 l -26,1 33,29 c 35,33 47,36 58,18 z m -2344,-15 c 10,-9 18,-29 18,-44 0,-45 -43,-85 -128,-118 -42,-16 -94,-43 -114,-60 -31,-26 -45,-31 -91,-31 -71,0 -82,14 -51,62 30,47 88,86 194,132 47,20 99,45 115,56 36,24 34,24 57,3 z m -2949,-59 c 30,-36 62,-80 72,-98 l 17,-32 -56,-84 c -32,-47 -60,-86 -64,-88 -20,-7 -162,164 -162,195 0,16 120,173 132,173 3,0 31,-30 61,-66 z m 4927,11 c 36,-19 67,-58 75,-96 7,-33 -12,-92 -26,-83 -5,3 -34,-7 -65,-23 l -55,-28 -30,35 c -79,92 -89,141 -38,184 35,30 93,35 139,11 z m -2734,-61 c -3,-9 -6,-24 -6,-34 0,-34 -52,-82 -125,-115 -113,-51 -499,-349 -792,-610 -101,-91 -138,-118 -178,-129 -46,-14 -81,-38 -200,-140 -53,-45 -145,-82 -157,-63 -15,23 -8,75 15,108 19,28 164,133 217,156 19,8 339,268 447,363 45,39 95,79 112,88 17,10 122,79 234,154 264,180 454,277 433,222 z m 2081,-11 c 10,-42 6,-63 -17,-88 -22,-24 -103,-50 -121,-40 -25,16 3,123 38,144 10,6 35,11 55,11 33,0 39,-4 45,-27 z m -398,-9 73,-7 38,-82 c 21,-45 56,-111 79,-147 38,-60 46,-67 94,-81 130,-39 181,-33 396,49 79,30 146,53 149,49 3,-3 0,-27 -8,-53 -8,-26 -15,-74 -15,-106 0,-57 -1,-60 -39,-87 -66,-48 -141,-71 -251,-77 -117,-5 -191,10 -300,62 -133,63 -244,176 -280,287 -18,54 -23,58 -117,84 -66,18 -84,40 -67,78 22,48 41,51 248,31 z M 2114,1860 c 24,-30 79,-115 125,-189 94,-155 163,-244 218,-285 28,-21 45,-45 57,-79 10,-27 14,-53 9,-56 -4,-4 -27,-13 -51,-20 -32,-9 -52,-24 -83,-64 -23,-29 -45,-53 -49,-55 -16,-6 -67,49 -87,95 -12,26 -33,74 -47,106 -14,32 -39,71 -55,86 l -30,28 25,52 c 29,65 32,121 6,121 -10,0 -33,-16 -52,-35 -44,-46 -62,-45 -78,5 -17,54 -16,60 14,91 16,17 24,34 21,43 -8,20 -51,21 -67,1 -7,-8 -20,-15 -30,-15 -22,0 -48,57 -34,75 5,6 22,32 38,56 75,116 78,120 93,107 8,-7 34,-37 57,-68 z m 2356,62 c 0,-5 -27,-40 -59,-79 -67,-79 -150,-139 -226,-162 -35,-11 -71,-34 -112,-71 -34,-31 -123,-91 -198,-134 -144,-83 -185,-113 -303,-219 -75,-67 -150,-111 -209,-123 -33,-6 -33,-6 -33,31 0,61 38,114 120,165 39,25 97,61 128,81 31,20 118,90 193,155 121,105 145,122 209,143 69,24 96,39 294,164 80,51 95,57 143,57 29,0 53,-4 53,-8 z m 1019,-120 c 6,-29 11,-67 11,-84 0,-46 -51,-88 -156,-128 -49,-18 -137,-60 -196,-92 -58,-33 -145,-75 -193,-93 -88,-35 -192,-87 -370,-188 -55,-31 -208,-108 -340,-170 C 3988,925 3730,789 3372,586 3096,430 3054,409 2915,355 c -60,-24 -130,-55 -155,-69 -59,-34 -118,-35 -148,-3 l -22,24 28,39 c 59,81 142,138 269,183 46,16 273,137 548,291 502,282 918,499 1160,605 82,36 158,74 170,84 11,10 47,36 80,59 34,22 67,47 74,55 7,9 34,19 59,22 82,11 140,35 232,96 133,87 244,138 261,120 4,-3 12,-30 18,-59 z m -2156,-53 c 20,-5 37,-14 37,-18 0,-11 -96,-96 -317,-277 l -184,-151 -40,7 c -22,4 -45,12 -50,17 -6,6 28,45 90,106 96,94 212,177 319,231 41,21 52,31 52,51 0,22 22,44 45,45 6,0 27,-5 48,-11 z m 1311,-72 29,-13 -59,-50 c -121,-105 -247,-178 -328,-191 -32,-5 -36,-3 -36,15 0,35 58,90 147,140 47,26 97,61 112,79 21,26 33,32 66,32 22,0 53,-5 69,-12 z m -2844,-33 c 11,-12 10,-18 -4,-32 -15,-15 -18,-15 -26,-2 -25,39 2,69 30,34 z m 640,-706 40,-13 0,-71 c 0,-45 -5,-77 -14,-90 -14,-17 -17,-18 -42,-4 -60,33 -85,108 -54,164 15,30 17,30 70,14 z"
       id="path80" />
    <path
       inkscape:connector-curvature="0"
       d="m 7866,9569 c -52,-41 -8,-98 83,-107 68,-6 100,3 112,35 14,38 3,59 -42,77 -57,23 -120,21 -153,-5 z"
       id="path82" />
    <path
       inkscape:connector-curvature="0"
       d="m 7920,9396 c -25,-8 -57,-17 -72,-20 -57,-13 -24,-65 49,-81 59,-12 61,-30 9,-78 -38,-36 -46,-49 -46,-80 0,-26 6,-39 19,-47 29,-15 109,-12 147,6 l 34,16 -1,82 c 0,44 -8,110 -17,146 -16,61 -20,65 -47,67 -17,1 -50,-4 -75,-11 z"
       id="path84" />
    <path
       inkscape:connector-curvature="0"
       d="m 7860,8489 c -41,-17 -60,-40 -60,-74 l 0,-32 83,-17 c 103,-20 137,-20 165,0 83,58 14,135 -118,133 -25,0 -56,-5 -70,-10 z"
       id="path86" />
    <path
       inkscape:connector-curvature="0"
       d="m 7890,8268 c -30,-16 -34,-34 -20,-88 22,-82 81,-114 149,-84 l 41,18 0,63 c 0,59 -2,63 -30,78 -43,22 -110,28 -140,13 z"
       id="path88" />
    <path
       inkscape:connector-curvature="0"
       d="m 7883,8018 c -31,-15 -33,-92 -4,-107 33,-18 124,-23 150,-9 53,28 53,86 1,113 -33,17 -114,19 -147,3 z"
       id="path90" />
    <path
       inkscape:connector-curvature="0"
       d="m 7903,7823 c -27,-5 -63,-48 -63,-74 0,-45 139,-71 180,-34 55,50 -25,124 -117,108 z"
       id="path92" />
    <path
       inkscape:connector-curvature="0"
       d="m 7842,7631 c -76,-26 -79,-31 -61,-98 l 15,-58 55,1 c 69,1 116,26 135,69 25,60 19,83 -23,94 -50,14 -59,14 -121,-8 z"
       id="path94" />
    <path
       inkscape:connector-curvature="0"
       d="m 7983,7068 c -84,-18 -120,-96 -70,-154 31,-35 107,-44 172,-19 l 45,17 0,68 c 0,38 -4,71 -9,75 -22,13 -99,20 -138,13 z"
       id="path96" />
    <path
       inkscape:connector-curvature="0"
       d="m 7954,6769 c -43,-12 -66,-41 -71,-93 -5,-37 -2,-46 15,-55 32,-17 133,-24 165,-12 26,10 27,13 27,80 l 0,69 -44,11 c -51,12 -50,12 -92,0 z"
       id="path98" />
    <path
       inkscape:connector-curvature="0"
       d="m 7918,6533 c -34,-5 -78,-46 -78,-72 0,-62 163,-80 234,-26 16,12 18,19 8,39 -21,46 -91,72 -164,59 z"
       id="path100" />
    <path
       inkscape:connector-curvature="0"
       d="m 7943,6313 c -28,-4 -33,-8 -33,-32 0,-82 140,-97 169,-17 7,17 3,25 -18,38 -25,17 -49,19 -118,11 z"
       id="path102" />
    <path
       inkscape:connector-curvature="0"
       d="m 5607,6213 c -12,-11 -8,-31 9,-47 22,-22 77,-20 105,4 24,20 24,20 5,35 -20,15 -107,21 -119,8 z"
       id="path104" />
    <path
       inkscape:connector-curvature="0"
       d="m 2222,10628 c -19,-19 -16,-228 4,-256 8,-12 18,-22 23,-22 11,0 51,88 51,115 0,13 -4,27 -10,30 -5,3 -10,32 -10,64 0,55 -11,81 -35,81 -6,0 -16,-5 -23,-12 z"
       id="path106" />
    <path
       inkscape:connector-curvature="0"
       d="m 5385,10382 c -9,-20 -20,-64 -22,-97 l -5,-60 34,-13 c 19,-6 37,-12 41,-12 12,0 37,59 37,89 0,41 -28,109 -50,121 -14,7 -20,2 -35,-28 z"
       id="path108" />
    <path
       inkscape:connector-curvature="0"
       d="m 11588,7903 c -10,-2 -18,-13 -18,-23 0,-30 28,-50 71,-50 36,0 39,2 39,28 0,46 -31,61 -92,45 z"
       id="path110" />
    <path
       inkscape:connector-curvature="0"
       d="m 5648,3039 c -10,-5 -18,-16 -18,-23 0,-17 51,-39 82,-34 18,2 23,9 23,33 0,27 -3,30 -35,32 -19,2 -43,-2 -52,-8 z"
       id="path112" />
    <path
       inkscape:connector-curvature="0"
       d="m 1006,3263 c -5,-44 -3,-60 9,-72 42,-42 77,62 35,107 -11,12 -24,22 -29,22 -5,0 -11,-26 -15,-57 z"
       id="path114" />
    <path
       inkscape:connector-curvature="0"
       d="m 1087,3173 c -17,-16 -6,-75 18,-98 40,-41 55,-33 55,28 0,29 -5,58 -12,65 -13,13 -50,16 -61,5 z"
       id="path116" />
    <path
       inkscape:connector-curvature="0"
       d="m 1837,2044 c -11,-12 -8,-69 5,-82 7,-7 23,-12 36,-12 21,0 23,3 20,48 -3,42 -6,47 -28,50 -14,2 -29,0 -33,-4 z"
       id="path118" />
    <path
       inkscape:connector-curvature="0"
       d="m 2210,1423 c 0,-10 4,-24 9,-32 14,-22 42,9 29,32 -12,22 -38,22 -38,0 z"
       id="path120" />
    <path
       inkscape:connector-curvature="0"
       d="m 2280,1296 0,-56 56,0 56,0 -6,28 c -11,45 -40,77 -74,80 l -32,3 0,-55 z"
       id="path122" />
    <path
       inkscape:connector-curvature="0"
       d="m 3246,10913 c -78,-423 -116,-730 -116,-947 0,-124 2,-145 15,-140 8,3 24,21 35,39 38,61 52,134 60,300 6,140 11,169 34,230 16,41 38,134 52,225 14,85 34,200 45,254 20,96 20,101 3,113 -10,7 -39,13 -65,13 l -47,0 -16,-87 z"
       id="path124" />
  </g>
</svg>
